<?xml version="1.0" standalone="no"?>
<!DOCTYPE svg PUBLIC "-//W3C//DTD SVG 20010904//EN"
 "http://www.w3.org/TR/2001/REC-SVG-20010904/DTD/svg10.dtd">
<svg version="1.0" xmlns="http://www.w3.org/2000/svg"
 width="499.000000pt" height="499.000000pt" viewBox="0 0 499.000000 499.000000"
 preserveAspectRatio="xMidYMid meet">

<g transform="translate(0.000000,499.000000) scale(0.100000,-0.100000)"
fill="#000000" stroke="none">
<path d="M2180 3547 c-85 -31 -141 -67 -216 -138 -34 -32 -74 -61 -90 -64
-158 -35 -202 -55 -270 -117 -24 -22 -55 -64 -70 -94 -24 -49 -26 -63 -22
-142 3 -71 10 -100 32 -145 52 -107 154 -190 286 -233 58 -19 65 -24 61 -45
-2 -13 -2 -71 0 -129 7 -295 4 -416 -15 -513 -11 -53 -17 -100 -14 -103 3 -3
32 2 64 10 157 40 283 51 584 51 270 0 305 -2 410 -23 167 -34 204 -38 198
-21 -63 164 -72 204 -75 339 -3 105 0 151 14 210 l18 74 60 22 c152 54 241
126 306 246 l34 63 0 140 c0 130 -2 144 -26 196 -52 111 -141 176 -293 213
-78 20 -106 32 -147 65 -76 60 -137 75 -275 67 -101 -6 -115 -5 -146 14 -67
39 -180 72 -263 77 -66 3 -91 0 -145 -20z m267 -136 c28 -11 80 -38 115 -59
l65 -40 54 19 c30 10 81 18 115 19 51 0 68 -5 107 -31 26 -17 47 -34 47 -37 0
-18 71 -50 122 -56 83 -9 165 -43 214 -88 54 -49 69 -105 62 -229 -6 -97 -27
-146 -90 -206 -39 -38 -137 -88 -205 -104 -74 -18 -78 -23 -101 -101 -38 -132
-45 -191 -40 -349 l5 -151 -31 6 c-189 35 -600 32 -785 -5 -29 -6 -57 -7 -61
-2 -4 4 -10 115 -12 246 l-5 237 127 66 c71 36 138 76 149 88 l22 23 -47 42
-46 43 -76 -6 c-284 -21 -256 -22 -327 13 -68 34 -148 111 -171 168 -19 44
-18 128 2 169 33 68 143 124 247 124 48 0 51 2 128 78 77 77 152 127 213 143
47 12 147 2 203 -20z"/>
<path d="M2310 3185 c1 -11 15 -87 33 -170 l32 -150 33 -3 c23 -2 32 1 32 11
0 37 -87 270 -116 312 -14 19 -14 19 -14 0z"/>
<path d="M2765 3115 c-39 -60 -125 -240 -125 -261 0 -7 14 -14 30 -16 17 -3
30 -4 30 -3 0 1 25 73 55 160 31 87 54 164 52 169 -2 6 -21 -16 -42 -49z"/>
<path d="M2020 3046 c0 -9 111 -190 128 -208 19 -22 51 -23 59 -2 6 16 -29 65
-107 147 -41 45 -80 75 -80 63z"/>
<path d="M3007 2940 c-125 -95 -167 -155 -107 -155 17 0 37 16 70 57 55 68
113 148 107 148 -2 0 -34 -22 -70 -50z"/>
</g>
</svg>
